# xmcd CD database file
#
# Track frame offsets:
#	150
#	5485
#	25309
#	38691
#	63254
#	72319
#	84203
#	98916
#	112714
#	122646
#	135213
#	142374
#	170335
#	177534
#	194717
#	208921
#	221143
#
# Disc length: 3079 seconds
#
# Revision: 0
# Processed by: cddbd v1.5.1PL0 Copyright (c) Steve Scherf et al.
# Submitted via: CDex 1.51
#
DISCID=f60c0511
DTITLE=prestissimo - 壱萬BPM
DYEAR=1900
DGENRE=未分類 (日本)
TTITLE0=壱萬BPM
TTITLE1=el ciero grande
TTITLE2=UNAMONA2 -学校に奴が攻めてきた！-
TTITLE3=CLOVER
TTITLE4=distancia "82.1%"
TTITLE5=リディアンの海
TTITLE6=筋肉世界
TTITLE7=larua avis mix
TTITLE8=青空の下で
TTITLE9=時間律
TTITLE10=たまごやき
TTITLE11=彼方より
TTITLE12=schreihals - dj.RN
TTITLE13=vida - project "癒"
TTITLE14=真夏海岸 (long.Ver) - 神威
TTITLE15=ボーナストラック 1
TTITLE16=ボーナストラック 2
EXTD=
EXTT0=
EXTT1=
EXTT2=
EXTT3=
EXTT4=
EXTT5=
EXTT6=
EXTT7=
EXTT8=
EXTT9=
EXTT10=
EXTT11=
EXTT12=
EXTT13=
EXTT14=
EXTT15=
EXTT16=
PLAYORDER=
